<mxfile host="app.diagrams.net" modified="2023-01-24T12:30:10.223Z" agent="5.0 (Windows NT 10.0; Win64; x64) AppleWebKit/537.36 (KHTML, like Gecko) Chrome/109.0.0.0 Safari/537.36" etag="1nRGiekWhAfX-A6arVNX" version="20.8.10" type="github">
  <diagram id="C5RBs43oDa-KdzZeNtuy" name="Page-1">
    <mxGraphModel dx="461" dy="251" grid="1" gridSize="10" guides="1" tooltips="1" connect="1" arrows="1" fold="1" page="1" pageScale="1" pageWidth="827" pageHeight="1169" math="0" shadow="0">
      <root>
        <mxCell id="WIyWlLk6GJQsqaUBKTNV-0" />
        <mxCell id="WIyWlLk6GJQsqaUBKTNV-1" parent="WIyWlLk6GJQsqaUBKTNV-0" />
        <mxCell id="qfgWXqgKvP5PUYZuIK3g-2" value="" style="edgeStyle=orthogonalEdgeStyle;rounded=0;orthogonalLoop=1;jettySize=auto;html=1;" edge="1" parent="WIyWlLk6GJQsqaUBKTNV-1" source="qfgWXqgKvP5PUYZuIK3g-0" target="qfgWXqgKvP5PUYZuIK3g-1">
          <mxGeometry relative="1" as="geometry" />
        </mxCell>
        <mxCell id="qfgWXqgKvP5PUYZuIK3g-0" value="Start" style="ellipse;whiteSpace=wrap;html=1;aspect=fixed;" vertex="1" parent="WIyWlLk6GJQsqaUBKTNV-1">
          <mxGeometry x="330" y="90" width="80" height="80" as="geometry" />
        </mxCell>
        <mxCell id="qfgWXqgKvP5PUYZuIK3g-4" value="" style="edgeStyle=orthogonalEdgeStyle;rounded=0;orthogonalLoop=1;jettySize=auto;html=1;" edge="1" parent="WIyWlLk6GJQsqaUBKTNV-1" source="qfgWXqgKvP5PUYZuIK3g-1" target="qfgWXqgKvP5PUYZuIK3g-3">
          <mxGeometry relative="1" as="geometry" />
        </mxCell>
        <mxCell id="qfgWXqgKvP5PUYZuIK3g-1" value="Preparation" style="shape=hexagon;perimeter=hexagonPerimeter2;whiteSpace=wrap;html=1;fixedSize=1;" vertex="1" parent="WIyWlLk6GJQsqaUBKTNV-1">
          <mxGeometry x="310" y="190" width="120" height="80" as="geometry" />
        </mxCell>
        <mxCell id="qfgWXqgKvP5PUYZuIK3g-6" value="" style="edgeStyle=orthogonalEdgeStyle;rounded=0;orthogonalLoop=1;jettySize=auto;html=1;" edge="1" parent="WIyWlLk6GJQsqaUBKTNV-1" source="qfgWXqgKvP5PUYZuIK3g-3" target="qfgWXqgKvP5PUYZuIK3g-5">
          <mxGeometry relative="1" as="geometry" />
        </mxCell>
        <mxCell id="qfgWXqgKvP5PUYZuIK3g-3" value="Input" style="shape=parallelogram;perimeter=parallelogramPerimeter;whiteSpace=wrap;html=1;fixedSize=1;" vertex="1" parent="WIyWlLk6GJQsqaUBKTNV-1">
          <mxGeometry x="310" y="290" width="120" height="60" as="geometry" />
        </mxCell>
        <mxCell id="qfgWXqgKvP5PUYZuIK3g-8" value="" style="edgeStyle=orthogonalEdgeStyle;rounded=0;orthogonalLoop=1;jettySize=auto;html=1;" edge="1" parent="WIyWlLk6GJQsqaUBKTNV-1" source="qfgWXqgKvP5PUYZuIK3g-5" target="qfgWXqgKvP5PUYZuIK3g-7">
          <mxGeometry relative="1" as="geometry" />
        </mxCell>
        <mxCell id="qfgWXqgKvP5PUYZuIK3g-5" value="Process" style="whiteSpace=wrap;html=1;" vertex="1" parent="WIyWlLk6GJQsqaUBKTNV-1">
          <mxGeometry x="310" y="370" width="120" height="60" as="geometry" />
        </mxCell>
        <mxCell id="qfgWXqgKvP5PUYZuIK3g-10" value="" style="edgeStyle=orthogonalEdgeStyle;rounded=0;orthogonalLoop=1;jettySize=auto;html=1;" edge="1" parent="WIyWlLk6GJQsqaUBKTNV-1" source="qfgWXqgKvP5PUYZuIK3g-7" target="qfgWXqgKvP5PUYZuIK3g-9">
          <mxGeometry relative="1" as="geometry" />
        </mxCell>
        <mxCell id="qfgWXqgKvP5PUYZuIK3g-7" value="Output" style="shape=parallelogram;perimeter=parallelogramPerimeter;whiteSpace=wrap;html=1;fixedSize=1;" vertex="1" parent="WIyWlLk6GJQsqaUBKTNV-1">
          <mxGeometry x="310" y="450" width="120" height="60" as="geometry" />
        </mxCell>
        <mxCell id="qfgWXqgKvP5PUYZuIK3g-9" value="End" style="ellipse;whiteSpace=wrap;html=1;" vertex="1" parent="WIyWlLk6GJQsqaUBKTNV-1">
          <mxGeometry x="330" y="540" width="80" height="80" as="geometry" />
        </mxCell>
        <mxCell id="qfgWXqgKvP5PUYZuIK3g-12" value="Trial flowchart" style="text;html=1;strokeColor=none;fillColor=none;align=center;verticalAlign=middle;whiteSpace=wrap;rounded=0;" vertex="1" parent="WIyWlLk6GJQsqaUBKTNV-1">
          <mxGeometry x="330" y="40" width="80" height="30" as="geometry" />
        </mxCell>
      </root>
    </mxGraphModel>
  </diagram>
</mxfile>
